<svg width="30" height="30" viewBox="0 0 30 30" fill="none" xmlns="http://www.w3.org/2000/svg">
<path fill-rule="evenodd" clip-rule="evenodd" d="M2.5 2.5C1.80965 2.5 1.25 3.05965 1.25 3.75C1.25 4.44035 1.80965 5 2.5 5H3.09051C3.6542 5 4.14815 5.37727 4.29646 5.9211L4.81678 7.8289L7.5 17.6674V20C7.5 20.8669 7.79416 21.6651 8.2881 22.3002C7.7978 22.852 7.5 23.5787 7.5 24.375C7.5 26.1009 8.89911 27.5 10.625 27.5C12.3509 27.5 13.75 26.1009 13.75 24.375C13.75 24.161 13.7285 23.952 13.6875 23.75H17.5625C17.5215 23.952 17.5 24.161 17.5 24.375C17.5 26.1009 18.8991 27.5 20.625 27.5C22.3509 27.5 23.75 26.1009 23.75 24.375C23.75 23.9644 23.6708 23.5722 23.5269 23.213C23.6675 23.0107 23.75 22.765 23.75 22.5C23.75 21.8096 23.1904 21.25 22.5 21.25H20.625H11.25C10.5597 21.25 10 20.6904 10 20V18.75H22.795C23.9226 18.75 24.9106 17.9952 25.2071 16.9072L27.2509 9.40729C27.6841 7.81705 26.487 6.25 24.8388 6.25H6.97748L6.70837 5.26331C6.26343 3.63184 4.78157 2.5 3.09051 2.5H2.5ZM20.625 23.75C20.2799 23.75 20 24.0299 20 24.375C20 24.7201 20.2799 25 20.625 25C20.9701 25 21.25 24.7201 21.25 24.375C21.25 24.0299 20.9701 23.75 20.625 23.75ZM22.795 16.25H9.70475L7.65929 8.75H24.8388L22.795 16.25ZM10.625 23.75C10.2798 23.75 10 24.0299 10 24.375C10 24.7201 10.2798 25 10.625 25C10.9702 25 11.25 24.7201 11.25 24.375C11.25 24.0299 10.9702 23.75 10.625 23.75Z" fill="url(#paint0_linear_992_281)"/>
<defs>
<linearGradient id="paint0_linear_992_281" x1="14.2951" y1="2.5" x2="14.2951" y2="27.5" gradientUnits="userSpaceOnUse">
<stop stop-color="white"/>
<stop offset="0.921875" stop-color="white" stop-opacity="0.53"/>
<stop offset="1" stop-color="white" stop-opacity="0"/>
</linearGradient>
</defs>
</svg>
