<svg width="107" height="114" viewBox="0 0 107 114" fill="none" xmlns="http://www.w3.org/2000/svg">
<g clip-path="url(#clip0_343_72)">
<path d="M102.455 41.6703C82.0968 45.1888 66.067 55.7582 58.4922 73.1576C52.4034 87.1213 58.5932 99.2084 61.2768 103.444C61.8684 100.768 62.6187 98.1735 63.4555 95.6347L63.3112 96.0348C63.6863 95.3311 61.955 79.3805 64.3356 73.3783C64.3356 73.3783 64.7396 85.2585 64.9705 91.4401L64.8695 91.716C67.8994 83.9477 71.9249 76.9245 76.1668 70.8395C76.1668 70.8395 78.3022 57.1242 81.4475 53.2883C81.4475 53.2883 77.5952 65.817 78.3888 67.5831C78.4176 67.6383 78.3887 67.6797 78.4176 67.7349C88.6328 54.0196 99.2087 45.8373 99.2087 45.8373C92.9613 52.2534 87.7238 58.9179 83.3376 65.3616C92.4707 62.0087 101.907 56.1859 101.907 56.1859C99.1654 61.1256 82.068 67.5004 81.8515 67.5693C77.4653 74.289 74.017 80.7051 71.391 86.2796C76.2534 84.8584 92.0523 77.5178 92.0523 77.5178C86.5407 82.899 70.4532 88.3769 70.4243 88.3907C66.6153 96.7799 64.7396 102.879 64.2635 104.576C120.462 89.5083 102.455 41.6841 102.455 41.6841V41.6703Z" fill="white"/>
<path d="M9.13308 67.2658C20.0986 69.1561 28.7411 74.8548 32.8243 84.2237C36.0995 91.7437 32.7666 98.2564 31.3237 100.547C31.0063 99.1119 30.6023 97.7044 30.1406 96.3384L30.2128 96.5592C30.0108 96.1729 30.9486 87.5904 29.6645 84.3479C29.6645 84.3479 29.4481 90.7502 29.3182 94.0755L29.3759 94.2273C27.7455 90.0465 25.5669 86.252 23.2872 82.9819C23.2872 82.9819 22.1329 75.5861 20.4448 73.5302C20.4448 73.5302 22.5225 80.2774 22.0897 81.2295C22.0897 81.2571 22.0897 81.2847 22.0752 81.3123C16.5636 73.9165 10.8645 69.5149 10.8645 69.5149C14.2263 72.9782 17.0542 76.5657 19.406 80.0429C14.486 78.2353 9.39279 75.1031 9.39279 75.1031C10.8645 77.7662 20.0841 81.2019 20.1996 81.2433C22.5658 84.8722 24.427 88.3217 25.841 91.3297C23.2295 90.5708 14.7168 86.6108 14.7168 86.6108C17.689 89.5084 26.346 92.4612 26.3749 92.4612C28.4237 96.9869 29.4336 100.271 29.6934 101.182C-0.56271 93.0269 9.13308 67.2658 9.13308 67.2658Z" fill="white"/>
<path d="M81.0724 44.5403C83.6118 38.7727 86.0069 33.3224 85.7616 29.6245C85.6895 28.5345 85.2999 27.8998 84.5929 27.748C82.8471 27.4168 80.755 30.48 74.9404 40.6492C73.5842 43.0087 72.2856 45.2854 71.3045 46.817C71.5642 44.4851 72.3 40.4284 72.9637 36.7167C75.4021 23.0566 77.1191 12.3907 75.1857 9.63105C74.6374 8.84456 73.9593 8.83076 73.613 8.88595C71.2179 9.2723 68.9527 16.2817 64.4511 32.8947C63.7152 35.5991 62.9217 38.5105 62.2868 40.6768C62.3734 38.2483 62.5754 34.8816 62.7774 31.57C64.0182 11.2868 64.1481 1.40738 61.5077 0.151751C61.0604 -0.0552212 60.5699 -0.0552212 60.1226 0.193145C57.6986 1.47637 55.5055 13.7567 53.9761 25.0573C53.9761 15.9644 53.6154 6.59547 52.2015 4.76032C51.5666 3.93243 50.8741 3.96003 50.5278 4.05662C48.3636 4.60854 46.9784 11.2316 44.7853 31.2665C44.6122 32.8947 44.4535 34.3159 44.3236 35.3921C43.6311 41.2149 41.2216 49.4248 40.0096 53.3297C37.4125 47.5345 33.7622 42.443 31.9586 40.4698C29.7511 38.0552 26.6779 37.5308 25.1918 38.5519C24.4559 39.0486 23.9654 40.0835 24.7878 41.4357C28.1784 47.0377 30.5158 55.5926 31.5546 66.2171C32.7522 78.5802 34.5701 81.5744 36.6767 85.0515C37.2249 85.9622 37.8021 86.9005 38.3792 88.0595C40.9474 93.22 35.912 107.943 35.8687 108.081C35.7244 108.522 35.9697 108.977 36.417 109.129C36.5035 109.157 36.6045 109.171 36.6911 109.171C37.0518 109.171 37.3981 108.95 37.5135 108.605C37.7299 107.97 42.8087 93.0958 39.9519 87.342C39.3459 86.1278 38.7543 85.1481 38.1916 84.2236C36.1861 80.9121 34.4691 78.0697 33.3004 66.0653C32.2472 55.22 29.8232 46.4168 26.3172 40.6078C25.9853 40.0697 26.1729 39.9455 26.2306 39.9041C26.8366 39.4902 28.972 39.6971 30.6889 41.5737C33.4736 44.6231 41.4813 56.3515 41.2071 65.196C41.2071 65.6514 41.5678 66.0377 42.044 66.0515C42.5057 66.0377 42.9241 65.7066 42.9385 65.2512C43.0251 62.2432 42.2604 58.9869 41.0773 55.8271C41.6833 53.9782 45.2038 43.0777 46.0983 35.6129C46.2282 34.5228 46.3869 33.1016 46.56 31.4597C47.267 24.9746 49.1138 8.12706 50.9174 5.83657C52.6343 8.5272 52.4612 30.204 51.9273 43.3674C51.9129 43.809 52.2736 44.1953 52.7353 44.2229C53.197 44.2643 53.6154 43.9194 53.6587 43.4778C55.5055 24.2019 58.6942 3.60128 60.9017 1.76613C62.8207 3.67027 61.6664 22.4219 61.1037 31.5149C60.3967 43.0639 60.3967 44.5955 61.0893 45.1888C61.2913 45.3544 61.6231 45.4509 61.8828 45.4095C62.8351 45.244 63.167 44.4851 66.1825 33.3638C68.2024 25.899 71.9105 12.1975 73.8294 10.6659C75.4598 13.26 72.9637 27.2374 71.3045 36.496C69.2412 48.0174 69.1403 49.3972 70.2224 49.8801C70.4388 49.9767 71.0159 50.1423 71.5931 49.4662C72.603 48.3072 74.421 45.1612 76.5131 41.5047C78.7928 37.517 82.5008 31.0595 84.0879 29.6797C84.0879 29.7211 84.0879 29.7487 84.0879 29.7901C84.3044 33.1016 81.8804 38.6209 79.5286 43.947C78.9659 45.2302 78.3888 46.5272 77.8549 47.8242L80.4376 46.196C80.6684 45.6579 80.8993 45.1336 81.1301 44.5955L81.0724 44.5403Z" fill="white"/>
<path d="M58.4634 113.255C58.5066 113.683 58.8818 114.014 59.3291 114.014C59.3579 114.014 59.3868 114.014 59.4156 114.014C59.8918 113.972 60.238 113.572 60.1948 113.117C60.0216 111.323 60.2236 109.074 60.6276 106.646L59.0982 105.362C58.5499 108.274 58.2614 111.033 58.4634 113.269V113.255Z" fill="white"/>
<path d="M71.4776 109.971C71.0447 109.971 70.684 109.667 70.6263 109.253C70.5686 108.798 70.9005 108.384 71.3766 108.329C71.6219 108.301 95.7459 105.114 105.37 87.4938C105.6 87.0937 106.12 86.9419 106.538 87.1489C106.957 87.3558 107.13 87.8664 106.899 88.2665C96.8425 106.659 71.8383 109.957 71.593 109.985C71.5497 109.985 71.5209 109.985 71.4776 109.985V109.971Z" fill="white"/>
<path d="M17.9776 101.982C17.8622 101.982 17.7612 101.968 17.6458 101.913C-5.72801 92.6681 0.836849 67.3072 0.894562 67.0588C1.00999 66.6173 1.48612 66.3551 1.94782 66.4655C2.40953 66.5759 2.68367 67.0312 2.56824 67.4728C2.30853 68.4524 -3.6792 91.6885 18.3095 100.381C18.7568 100.561 18.9587 101.044 18.7712 101.458C18.6413 101.775 18.3095 101.968 17.9776 101.968V101.982Z" fill="white"/>
</g>
<defs>
<clipPath id="clip0_343_72">
<rect width="107" height="114" fill="white"/>
</clipPath>
</defs>
</svg>
