<svg width="59" height="55" viewBox="0 0 59 55" fill="none" xmlns="http://www.w3.org/2000/svg">
<g clip-path="url(#clip0_1546_11)">
<path d="M45.0005 1.30839C38.7051 0.337039 31.9045 3.74666 29.7186 9.80271C28.6208 6.89858 26.3475 4.49004 23.6952 2.97355C19.2554 0.446068 14.8933 0.406421 10.1426 2.44823C6.4703 4.02419 3.59462 8.17719 2.06934 11.785C0.145745 16.3444 1.11726 21.9247 2.31222 26.5436C2.53567 27.4059 3.83749 27.0391 3.61405 26.1768C1.61273 18.4655 1.94304 9.9613 8.83107 4.7973C12.0662 2.37885 17.633 1.51653 21.2276 3.20152C24.9971 4.95589 28.7471 8.39525 29.0385 12.8852C29.0968 13.7773 30.3209 13.7674 30.389 12.8852C31.0982 4.65854 40.9882 0.267657 47.9248 3.61781C55.2888 7.17611 58.3977 17.2662 55.9689 24.9081C54.4436 29.7351 48.3717 28.5358 44.3787 28.5556C42.1151 28.5655 39.8418 28.5953 37.5781 28.5755C37.277 28.5755 36.014 28.5755 36.0529 28.5953C35.6934 28.3673 34.7802 25.6119 34.5665 25.0469C34.2847 24.2936 33.3326 24.4522 33.2355 25.2352C32.7886 28.8133 31.8754 32.2923 31.1467 35.8209C30.4472 29.8937 30.1558 23.9269 29.1843 18.0393C29.0677 17.3554 28.0185 17.405 27.8824 18.0393C26.9498 22.1527 26.0171 26.266 25.0845 30.3794C24.6667 28.4664 24.249 26.5634 23.8312 24.6504C23.6952 24.0161 22.6266 23.9665 22.5294 24.6504C22.3837 25.602 22.1505 28.179 21.519 28.625C21.0916 28.9323 19.4691 28.6151 18.9154 28.6052C16.4574 28.5854 13.9995 28.5755 11.5416 28.5556C8.86022 28.5358 4.63414 27.9907 4.76043 32.104C4.81872 34.2549 6.78118 36.4354 8.02472 38.0312C9.83173 40.3406 11.9885 42.3329 14.2715 44.1467C18.9542 47.8834 24.1713 50.7777 29.2328 53.9296C29.4466 54.0584 29.7089 54.0485 29.9129 53.9296C39.0743 48.8251 46.4578 42.214 52.9669 33.898C53.5013 33.2141 52.5492 32.223 52.0051 32.9168C47.7013 38.4178 42.9506 43.6313 37.2575 47.6555C35.4408 48.9341 31.4673 52.6212 29.2134 52.3041C28.1545 52.1554 26.6875 50.7677 25.7645 50.2127C24.3461 49.3504 22.9277 48.4881 21.5287 47.596C18.4491 45.6236 15.4276 43.5223 12.7171 41.0345C11.0947 39.5477 2.96313 31.6084 8.31617 29.9235C10.3369 29.2891 13.6401 29.9631 15.758 29.973C17.8564 29.9829 19.9646 30.0027 22.0631 30.0127C22.3643 30.0127 22.6266 29.7946 22.714 29.5072C22.8792 28.9818 23.0249 28.4664 23.1706 27.9411C23.5884 29.8541 24.0061 31.767 24.4239 33.68C24.5696 34.3441 25.58 34.3342 25.7257 33.68C26.6098 29.7748 27.4938 25.8597 28.3779 21.9544C29.1454 28.0898 29.4174 34.2846 30.4181 40.4001C30.5541 41.2426 31.6616 40.9155 31.7491 40.2118C32.264 36.0489 33.4201 32.0148 34.1681 27.8916C34.6247 28.9224 35.2562 29.745 36.4998 29.9433C39.5698 30.4488 43.1546 29.9433 46.2538 29.9235C49.1003 29.9036 52.8892 30.5479 55.2694 28.5854C57.329 26.8806 57.7468 23.8674 57.9605 21.3498C58.6891 12.8159 54.1036 2.71585 45.0005 1.30839Z" fill="white" stroke="white" stroke-width="2" stroke-miterlimit="10"/>
</g>
<defs>
<clipPath id="clip0_1546_11">
<rect width="59" height="55" fill="white"/>
</clipPath>
</defs>
</svg>
