<svg width="366" height="39" viewBox="0 0 366 39" fill="none" xmlns="http://www.w3.org/2000/svg">
<path d="M46.6953 1.95996C45.6748 2.01367 44.8512 2.1569 44.2246 2.38965C43.6159 2.60449 43.0519 2.97152 42.5327 3.49072C42.1388 3.8667 41.8434 4.28743 41.6465 4.75293C41.4495 5.20052 41.3153 5.77344 41.2437 6.47168C41.1183 7.40267 41.0557 8.50374 41.0557 9.7749V29.5674C41.0557 31.4115 41.1631 32.7811 41.3779 33.6763C41.5928 34.5715 41.9777 35.2876 42.5327 35.8247C43.5174 36.7736 44.9049 37.2928 46.6953 37.3823V38H29.5347V37.3823C30.5731 37.3286 31.4056 37.1854 32.0322 36.9526C32.6768 36.702 33.2497 36.326 33.751 35.8247C34.306 35.2518 34.682 34.5267 34.8789 33.6494C35.0938 32.7542 35.2012 31.3936 35.2012 29.5674V5.55859L21.3706 38H20.8066L7.05664 6.04199V29.5674C7.05664 31.4115 7.15511 32.7721 7.35205 33.6494C7.56689 34.5267 7.95182 35.2518 8.50684 35.8247C9.00814 36.3439 9.5721 36.7199 10.1987 36.9526C10.8433 37.1854 11.6758 37.3286 12.6963 37.3823V38H0.315918V37.3823C1.33643 37.3286 2.15999 37.1854 2.78662 36.9526C3.43115 36.7199 4.00407 36.3439 4.50537 35.8247C5.06038 35.2518 5.43636 34.5267 5.6333 33.6494C5.84814 32.7542 5.95557 31.3936 5.95557 29.5674V9.7749C5.95557 8.95133 5.92871 8.17253 5.875 7.43848C5.78548 6.11361 5.57959 5.14681 5.25732 4.53809C4.80973 3.69661 4.19206 3.07894 3.4043 2.68506C2.63444 2.27327 1.60498 2.03158 0.315918 1.95996V1.34229H11.9712L23.5996 30.0508L35.6577 1.34229H46.6953V1.95996ZM89.2236 1.34229L89.6802 10.2046L89.0625 10.2314C88.8298 8.72754 88.4448 7.48324 87.9077 6.49854C87.3706 5.51383 86.5918 4.64551 85.5713 3.89355C84.7298 3.26693 83.7362 2.82829 82.5903 2.57764C81.4445 2.30908 79.9227 2.1748 78.0249 2.1748H71.875V18.2881H73.4863C75.1156 18.2881 76.342 18.1807 77.1655 17.9658C77.9891 17.751 78.6605 17.366 79.1797 16.811C79.681 16.2918 80.048 15.6831 80.2808 14.9849C80.5314 14.2687 80.7373 13.2214 80.8984 11.8428L81.5161 11.8696L81.4087 26.2642H80.791C80.6299 24.8856 80.3882 23.7756 80.0659 22.9341C79.7616 22.0926 79.3319 21.3765 78.7769 20.7856C78.2397 20.2127 77.5415 19.792 76.6821 19.5234C75.8228 19.2549 74.7306 19.1206 73.4058 19.1206H71.875V25.2705C71.875 27.7233 71.9377 29.5137 72.063 30.6416C72.1883 31.7516 72.43 32.6826 72.7881 33.4346C73.3968 34.7236 74.3188 35.6725 75.5542 36.2812C76.8075 36.8721 78.4546 37.1675 80.4956 37.1675C82.644 37.1675 84.4434 36.8989 85.8936 36.3618C87.3438 35.8068 88.5254 34.9564 89.4385 33.8105C90.083 33.0407 90.6022 32.1634 90.9961 31.1787C91.4079 30.194 91.7839 28.896 92.124 27.2847L92.7417 27.3115L92.3926 38H60.354V37.3823C61.3745 37.3286 62.1981 37.1854 62.8247 36.9526C63.4692 36.7199 64.0422 36.3439 64.5435 35.8247C65.0985 35.2518 65.4744 34.5267 65.6714 33.6494C65.8862 32.7542 65.9937 31.3936 65.9937 29.5674V9.7749C65.9937 7.94873 65.8862 6.59701 65.6714 5.71973C65.4744 4.82454 65.0985 4.09049 64.5435 3.51758C64.0601 2.99837 63.4961 2.6224 62.8516 2.38965C62.2249 2.1569 61.3924 2.01367 60.354 1.95996V1.34229H89.2236ZM112.362 6.20312V29.5674C112.362 31.4115 112.461 32.7721 112.658 33.6494C112.873 34.5267 113.257 35.2518 113.812 35.8247C114.314 36.3439 114.878 36.7199 115.504 36.9526C116.149 37.1854 116.981 37.3286 118.002 37.3823V38H105.622V37.3823C106.642 37.3286 107.466 37.1854 108.092 36.9526C108.737 36.7199 109.31 36.3439 109.811 35.8247C110.366 35.2518 110.742 34.5267 110.939 33.6494C111.154 32.7542 111.261 31.3936 111.261 29.5674V9.74805C111.261 7.93978 111.154 6.59701 110.939 5.71973C110.742 4.82454 110.366 4.09049 109.811 3.51758C109.328 2.99837 108.764 2.6224 108.119 2.38965C107.493 2.1569 106.66 2.01367 105.622 1.95996V1.34229H115.961L137.768 29.1646V9.7749C137.768 7.93083 137.66 6.57015 137.445 5.69287C137.248 4.81559 136.872 4.09049 136.317 3.51758C135.816 2.99837 135.243 2.6224 134.599 2.38965C133.972 2.1569 133.148 2.01367 132.128 1.95996V1.34229H144.508V1.95996C142.718 1.95996 141.321 2.47917 140.319 3.51758C139.764 4.09049 139.379 4.82454 139.164 5.71973C138.967 6.59701 138.869 7.93978 138.869 9.74805V38H137.66L112.362 6.20312ZM158.838 1.34229H187.601V1.95996L164.371 37.1675H172.964C177.977 37.1675 181.63 36.4513 183.921 35.019C185.765 33.8911 187.243 32.1634 188.353 29.8359C188.818 28.8512 189.167 27.7144 189.4 26.4253L190.018 26.4521L189.185 38H157.415V37.3823L180.86 2.1748H173.179C170.404 2.1748 168.211 2.3807 166.6 2.79248C165.006 3.18636 163.574 3.8846 162.303 4.88721C161.264 5.71077 160.468 6.62386 159.913 7.62646C159.375 8.61117 159.017 9.80176 158.838 11.1982L158.221 11.1445L158.838 1.34229ZM231.794 1.34229L232.25 10.2046L231.633 10.2314C231.4 8.72754 231.015 7.48324 230.478 6.49854C229.941 5.51383 229.162 4.64551 228.142 3.89355C227.3 3.26693 226.306 2.82829 225.161 2.57764C224.015 2.30908 222.493 2.1748 220.595 2.1748H214.445V18.2881H216.057C217.686 18.2881 218.912 18.1807 219.736 17.9658C220.559 17.751 221.231 17.366 221.75 16.811C222.251 16.2918 222.618 15.6831 222.851 14.9849C223.102 14.2687 223.308 13.2214 223.469 11.8428L224.086 11.8696L223.979 26.2642H223.361C223.2 24.8856 222.958 23.7756 222.636 22.9341C222.332 22.0926 221.902 21.3765 221.347 20.7856C220.81 20.2127 220.112 19.792 219.252 19.5234C218.393 19.2549 217.301 19.1206 215.976 19.1206H214.445V25.2705C214.445 27.7233 214.508 29.5137 214.633 30.6416C214.759 31.7516 215 32.6826 215.358 33.4346C215.967 34.7236 216.889 35.6725 218.125 36.2812C219.378 36.8721 221.025 37.1675 223.066 37.1675C225.214 37.1675 227.014 36.8989 228.464 36.3618C229.914 35.8068 231.096 34.9564 232.009 33.8105C232.653 33.0407 233.173 32.1634 233.566 31.1787C233.978 30.194 234.354 28.896 234.694 27.2847L235.312 27.3115L234.963 38H202.924V37.3823C203.945 37.3286 204.768 37.1854 205.395 36.9526C206.04 36.7199 206.612 36.3439 207.114 35.8247C207.669 35.2518 208.045 34.5267 208.242 33.6494C208.457 32.7542 208.564 31.3936 208.564 29.5674V9.7749C208.564 7.94873 208.457 6.59701 208.242 5.71973C208.045 4.82454 207.669 4.09049 207.114 3.51758C206.63 2.99837 206.066 2.6224 205.422 2.38965C204.795 2.1569 203.963 2.01367 202.924 1.95996V1.34229H231.794ZM254.933 6.20312V29.5674C254.933 31.4115 255.031 32.7721 255.228 33.6494C255.443 34.5267 255.828 35.2518 256.383 35.8247C256.884 36.3439 257.448 36.7199 258.075 36.9526C258.719 37.1854 259.552 37.3286 260.572 37.3823V38H248.192V37.3823C249.212 37.3286 250.036 37.1854 250.663 36.9526C251.307 36.7199 251.88 36.3439 252.381 35.8247C252.936 35.2518 253.312 34.5267 253.509 33.6494C253.724 32.7542 253.832 31.3936 253.832 29.5674V9.74805C253.832 7.93978 253.724 6.59701 253.509 5.71973C253.312 4.82454 252.936 4.09049 252.381 3.51758C251.898 2.99837 251.334 2.6224 250.689 2.38965C250.063 2.1569 249.23 2.01367 248.192 1.95996V1.34229H258.531L280.338 29.1646V9.7749C280.338 7.93083 280.23 6.57015 280.016 5.69287C279.819 4.81559 279.443 4.09049 278.888 3.51758C278.386 2.99837 277.813 2.6224 277.169 2.38965C276.542 2.1569 275.719 2.01367 274.698 1.95996V1.34229H287.079V1.95996C285.288 1.95996 283.892 2.47917 282.889 3.51758C282.334 4.09049 281.949 4.82454 281.734 5.71973C281.537 6.59701 281.439 7.93978 281.439 9.74805V38H280.23L254.933 6.20312ZM317.925 1.34229V1.95996C316.904 2.01367 316.072 2.1569 315.427 2.38965C314.801 2.6224 314.237 2.99837 313.735 3.51758C313.037 4.23372 312.607 5.22738 312.446 6.49854C312.339 7.44743 312.285 8.53955 312.285 9.7749V29.5674C312.285 31.0534 312.357 32.2261 312.5 33.0854C312.643 33.9448 312.876 34.6341 313.198 35.1533C313.664 35.8695 314.264 36.4066 314.998 36.7646C315.732 37.1048 316.707 37.3107 317.925 37.3823V38H300.764V37.3823C301.803 37.3286 302.635 37.1854 303.262 36.9526C303.906 36.702 304.47 36.326 304.954 35.8247C305.527 35.2518 305.911 34.5267 306.108 33.6494C306.305 32.7721 306.404 31.4115 306.404 29.5674V9.7749C306.404 7.93083 306.305 6.57015 306.108 5.69287C305.911 4.81559 305.527 4.09049 304.954 3.51758C304.47 2.99837 303.906 2.6224 303.262 2.38965C302.617 2.1569 301.785 2.01367 300.764 1.95996V1.34229H317.925ZM364.616 1.1543L364.938 13.1587H364.32C364.123 12.6395 363.971 12.2456 363.864 11.9771C363.237 10.2583 362.727 8.97819 362.333 8.13672C361.635 6.63281 360.623 5.25423 359.298 4.00098C358.296 3.05208 357.257 2.36279 356.183 1.93311C355.109 1.50342 353.9 1.28857 352.558 1.28857C350.535 1.28857 348.78 1.72721 347.294 2.60449C345.987 3.37435 344.77 4.48438 343.642 5.93457C342.514 7.36686 341.592 9.00505 340.875 10.8491C339.855 13.4451 339.345 16.3993 339.345 19.7114C339.345 22.5223 339.694 25.0557 340.392 27.3115C341.09 29.5674 342.111 31.4562 343.454 32.978C345.924 35.8068 349.201 37.2212 353.283 37.2212C355.324 37.2212 357.159 36.8721 358.788 36.1738C360.417 35.4577 361.68 34.4551 362.575 33.166C363.613 31.68 364.365 29.6748 364.831 27.1504L365.448 27.2578C365.108 30.0866 364.338 32.3335 363.139 33.9985C361.993 35.592 360.408 36.8094 358.385 37.6509C356.38 38.4924 354.053 38.9131 351.403 38.9131C348.932 38.9131 346.569 38.5461 344.313 37.812C340.714 36.6304 337.903 34.4998 335.88 31.4204C333.857 28.3231 332.846 24.6349 332.846 20.356C332.846 17.0796 333.437 14.0628 334.618 11.3057C335.8 8.5306 337.447 6.3016 339.56 4.61865C341.189 3.32959 343.131 2.30908 345.387 1.55713C347.661 0.787272 349.935 0.402344 352.208 0.402344C354.375 0.402344 356.667 0.814128 359.083 1.6377L361.286 2.36279C361.715 2.52393 362.091 2.60449 362.414 2.60449C362.861 2.60449 363.228 2.4165 363.515 2.04053C363.64 1.86149 363.792 1.56608 363.971 1.1543H364.616Z" fill="black"/>
</svg>
