<svg width="34" height="34" viewBox="0 0 34 34" fill="none" xmlns="http://www.w3.org/2000/svg">
<path fill-rule="evenodd" clip-rule="evenodd" d="M17 5.66665C15.0177 5.66628 13.0701 6.18584 11.3513 7.17345C9.63263 8.16107 8.20302 9.5822 7.20519 11.295C6.20735 13.0078 5.67621 14.9524 5.66477 16.9346C5.65333 18.9168 6.162 20.8674 7.14 22.5916C7.80103 21.7325 8.65077 21.0369 9.62353 20.5586C10.5963 20.0803 11.666 19.8322 12.75 19.8333H21.25C22.334 19.8322 23.4037 20.0803 24.3765 20.5586C25.3492 21.0369 26.199 21.7325 26.86 22.5916C27.838 20.8674 28.3467 18.9168 28.3352 16.9346C28.3238 14.9524 27.7926 13.0078 26.7948 11.295C25.797 9.5822 24.3674 8.16107 22.6487 7.17345C20.9299 6.18584 18.9823 5.66628 17 5.66665ZM28.2526 25.6076C30.1467 23.1383 31.1712 20.1121 31.1667 17C31.1667 9.17573 24.8242 2.83331 17 2.83331C9.17575 2.83331 2.83333 9.17573 2.83333 17C2.82865 20.1121 3.8532 23.1384 5.74741 25.6076L5.74033 25.6331L6.24325 26.2182C7.57192 27.7716 9.22162 29.0184 11.0787 29.8727C12.9357 30.727 14.9559 31.1685 17 31.1666C19.872 31.1719 22.6771 30.2995 25.0396 28.6662C26.0467 27.9704 26.96 27.1476 27.7567 26.2182L28.2597 25.6331L28.2526 25.6076ZM17 8.49998C15.8728 8.49998 14.7918 8.94775 13.9948 9.74478C13.1978 10.5418 12.75 11.6228 12.75 12.75C12.75 13.8771 13.1978 14.9582 13.9948 15.7552C14.7918 16.5522 15.8728 17 17 17C18.1272 17 19.2082 16.5522 20.0052 15.7552C20.8022 14.9582 21.25 13.8771 21.25 12.75C21.25 11.6228 20.8022 10.5418 20.0052 9.74478C19.2082 8.94775 18.1272 8.49998 17 8.49998Z" fill="url(#paint0_linear_992_279)"/>
<defs>
<linearGradient id="paint0_linear_992_279" x1="17" y1="2.83331" x2="17" y2="31.1667" gradientUnits="userSpaceOnUse">
<stop stop-color="white"/>
<stop offset="1" stop-color="white" stop-opacity="0.45"/>
</linearGradient>
</defs>
</svg>
