<svg width="99" height="119" viewBox="0 0 99 119" fill="none" xmlns="http://www.w3.org/2000/svg">
<g clip-path="url(#clip0_343_23)">
<path d="M65.783 29.6472C65.783 29.6472 74.1653 30.6071 79.2787 36.1471C84.3921 41.687 86.4674 44.3748 84.5142 46.034C84.5142 46.034 84.1344 53.1098 74.4908 54.5086C74.4908 54.5086 78.275 64.135 78.275 68.7288C78.275 73.3226 76.7016 72.1021 76.7016 72.1021C76.7016 72.1021 78.2208 78.0946 77.1492 80.7138C76.0777 83.3329 75.074 81.6737 75.074 81.6737C75.074 81.6737 72.1714 91.5606 70.9778 98.8284C69.7843 106.096 69.2688 110.361 71.0457 111.129C72.8225 111.897 77.9766 111.828 77.5968 117.313C77.5968 117.313 76.2676 119.411 69.6486 118.712C63.0296 118.013 60.6967 109.977 60.0592 104.629C60.0592 104.629 55.7732 110.882 52.8706 111.636C52.8706 111.636 60.873 111.252 63.0839 117.56C63.0839 117.56 64.8471 119.562 48.8965 118.849C32.9458 118.136 27.3305 119.85 24.9298 113.542C24.9298 113.542 16.9273 114.941 13.0074 110.292C9.10115 105.644 8.91126 94.0289 11.624 96.2641C14.3367 98.4993 16.1677 101.242 16.1677 101.242C16.1677 101.242 11.9495 91.876 17.2392 82.2496C22.5426 72.6232 31.4945 60.5696 44.3527 55.921C57.2109 51.2723 57.8484 38.7662 52.7349 34.5701C47.6215 30.3602 38.0999 23.9289 37.0284 17.3605C35.9569 10.792 37.7201 7.15812 37.7201 7.15812C37.7201 7.15812 40.2429 14.1105 46.7399 16.524C53.2368 18.9512 58.1468 25.3276 58.0925 28.893C58.0925 28.893 57.9704 21.0492 55.2577 16.4554C52.545 11.8616 53.6166 2.61917 55.0679 0.0137329C55.0679 0.0137329 71.656 7.54208 65.783 29.6609V29.6472Z" fill="white"/>
<path d="M34.614 39.6027C35.5228 37.2029 34.3292 34.5152 31.9556 33.5964C30.4093 33.0068 28.7546 33.3085 27.5338 34.2409C27.2355 32.7188 26.2046 31.375 24.6584 30.7853C22.2848 29.8665 19.6263 31.0733 18.7176 33.473C18.487 34.1038 18.392 34.7483 18.4192 35.3791C18.4192 35.3791 18.5006 39.9592 23.3292 45.2935V45.3209C23.3292 45.3209 23.3292 45.3209 23.3427 45.3209C23.3427 45.3209 23.3427 45.3346 23.3563 45.3483V45.3209C30.4771 44.5941 33.556 41.2345 33.556 41.2345C33.9901 40.782 34.3563 40.2472 34.5869 39.6164L34.614 39.6027Z" fill="white"/>
<path d="M6.53762 51.7385C5.87301 49.9833 6.74107 48.0087 8.49076 47.3367C9.61653 46.8979 10.8372 47.1173 11.7324 47.803C11.9495 46.6922 12.709 45.7049 13.8348 45.2661C15.5709 44.5942 17.5241 45.4718 18.1887 47.2407C18.365 47.707 18.4328 48.1732 18.4057 48.6395C18.4057 48.6395 18.3514 51.9991 14.7978 55.9073C14.7978 55.9073 14.7842 55.921 14.7707 55.921C14.7707 55.921 14.7707 55.921 14.7571 55.9347C9.53515 55.3862 7.28361 52.9179 7.28361 52.9179C6.95809 52.5887 6.70038 52.1911 6.52405 51.7248L6.53762 51.7385Z" fill="white"/>
<path d="M77.9087 106.425C77.9087 106.425 75.8471 93.6861 87.7558 89.0511C87.7558 89.0511 92.5709 98.3622 77.9087 106.425Z" fill="white"/>
<path d="M80.73 107.646C80.73 107.646 88.0407 101.667 95.3243 107.687C95.3243 107.687 91.1874 114.201 80.73 107.646Z" fill="white"/>
<path d="M3.66215 69.1264C3.66215 70.1549 2.83477 70.9777 1.83107 70.9777C0.827374 70.9777 0 70.1412 0 69.1264C0 68.1117 0.827374 67.2752 1.83107 67.2752C2.83477 67.2752 3.66215 68.1117 3.66215 69.1264Z" fill="white"/>
<path d="M77.7731 6.34904C77.7731 7.3775 76.9457 8.20027 75.942 8.20027C74.9383 8.20027 74.111 7.36379 74.111 6.34904C74.111 5.33429 74.9383 4.4978 75.942 4.4978C76.9457 4.4978 77.7731 5.33429 77.7731 6.34904Z" fill="white"/>
<path d="M99 72.8289C99 73.8574 98.1727 74.6801 97.169 74.6801C96.1653 74.6801 95.3379 73.8436 95.3379 72.8289C95.3379 71.8141 96.1653 70.9777 97.169 70.9777C98.1727 70.9777 99 71.8141 99 72.8289Z" fill="white"/>
</g>
<defs>
<clipPath id="clip0_343_23">
<rect width="99" height="119" fill="white"/>
</clipPath>
</defs>
</svg>
