<svg width="1277" height="365" viewBox="0 0 1277 365" fill="none" xmlns="http://www.w3.org/2000/svg">
<g clip-path="url(#clip0_1716_327)">
<path fill-rule="evenodd" clip-rule="evenodd" d="M0 13.8626C1.25469 9.32974 2.62129 4.70918 4.10148 0H5.2324C3.29441 6.16505 1.5548 12.1732 0 18.0354V13.8635V13.8626ZM74.8219 0C44.1532 103.216 69.364 162.258 126.695 193.84C175.718 220.846 248.276 227.793 329.453 225.148C332.172 224.897 334.89 224.646 337.618 224.399C341.588 224.029 345.564 223.662 349.552 223.301C353.521 222.931 357.497 222.563 361.485 222.203C365.454 221.833 369.43 221.466 373.418 221.104C377.387 220.734 381.363 220.368 385.351 220.007C389.32 219.637 393.296 219.269 397.284 218.909C401.253 218.539 405.229 218.172 409.217 217.811C413.186 217.44 417.162 217.073 421.15 216.713C425.12 216.343 429.096 215.975 433.083 215.614C437.053 215.244 441.029 214.878 445.017 214.517C448.986 214.146 452.962 213.78 456.95 213.419C460.919 213.049 464.895 212.681 468.883 212.32C472.852 211.95 476.828 211.584 480.816 211.223C484.785 210.852 488.761 210.486 492.749 210.125C496.718 209.755 500.694 209.388 504.682 209.026C508.651 208.656 512.627 208.29 516.615 207.929C520.585 207.559 524.562 207.192 528.548 206.83C532.518 206.46 536.495 206.093 540.482 205.732C544.451 205.362 548.427 204.996 552.415 204.635C556.384 204.265 560.36 203.898 564.348 203.536C568.317 203.166 572.295 202.799 576.281 202.439C580.25 202.068 584.228 201.702 588.214 201.341C592.183 200.971 596.159 200.604 600.147 200.242C604.116 199.871 608.094 199.506 612.08 199.145C616.049 198.774 620.026 198.407 624.013 198.046C627.981 197.675 631.959 197.308 635.946 196.948C877.274 174.434 1155.05 167.836 1249.45 318.044C1260.31 335.334 1269.19 350.962 1276.99 365.001H1275.82C1268.05 351.004 1259.2 335.436 1248.39 318.238C1172.72 197.847 978.702 178.499 780.349 187.217C974.894 179.788 1163.13 200.785 1237.51 319.142C1248.1 335.982 1256.8 351.247 1264.45 365.001H1263.28C1255.65 351.29 1246.98 336.085 1236.45 319.335C1160.79 198.944 966.771 179.596 768.418 188.315C962.963 180.885 1151.2 201.883 1225.58 320.239C1235.88 336.633 1244.4 351.533 1251.91 365H1250.74C1243.26 351.577 1234.77 336.737 1224.52 320.433C1148.86 200.042 954.84 180.694 756.485 189.412C951.03 181.983 1139.27 202.98 1213.65 321.337C1223.67 337.287 1232.01 351.821 1239.36 365H1238.19C1230.86 351.866 1222.55 337.391 1212.59 321.531C1136.93 201.14 942.905 181.791 744.552 190.51C939.097 183.08 1127.33 204.078 1201.72 322.435C1211.46 337.943 1219.61 352.113 1226.81 365H1225.65C1218.46 352.158 1210.35 338.048 1200.66 322.628C1124.99 202.238 930.972 182.889 732.619 191.608C927.164 184.178 1115.4 205.176 1189.78 323.532C1199.25 338.601 1207.21 352.408 1214.27 364.999H1213.1C1206.07 352.453 1198.14 338.708 1188.72 323.726C1113.06 203.335 919.04 183.987 720.686 192.705C915.23 185.276 1103.47 206.273 1177.85 324.63C1187.04 339.262 1194.82 352.703 1201.72 364.999H1200.55C1193.67 352.75 1185.93 339.37 1176.79 324.824C1101.13 204.433 907.105 185.084 708.751 193.803C903.297 186.373 1091.53 207.37 1165.91 325.728C1174.84 339.925 1182.42 353.002 1189.17 364.998H1188C1181.28 353.049 1173.72 340.033 1164.85 325.921C1089.19 205.531 895.172 186.182 696.818 194.901C891.364 187.472 1079.6 208.469 1153.98 326.825C1162.63 340.591 1170.03 353.302 1176.62 364.998H1175.44C1168.88 353.35 1161.52 340.701 1152.92 327.019C1077.26 206.628 883.239 187.279 684.885 195.998C879.429 188.569 1067.67 209.566 1142.05 327.923C1150.43 341.258 1157.63 353.606 1164.06 364.997H1162.89C1156.48 353.653 1149.32 341.368 1140.99 328.117C1065.33 207.726 871.306 188.377 672.951 197.096C867.496 189.665 1055.73 210.664 1130.11 329.021C1138.23 341.929 1145.23 353.911 1151.51 364.997H1150.34C1144.09 353.96 1137.12 342.04 1129.06 329.214C1053.4 208.824 859.375 189.475 661.02 198.194C855.565 190.764 1043.8 211.761 1118.18 330.118C1126.03 342.602 1132.84 354.218 1138.96 364.996H1137.79C1131.69 354.268 1124.92 342.713 1117.13 330.312C1041.46 209.922 847.445 190.573 649.089 199.291C843.633 191.862 1031.87 212.859 1106.25 331.216C1113.83 343.276 1120.45 354.528 1126.4 364.996H1125.23C1119.3 354.579 1112.72 343.389 1105.19 331.41C1029.53 211.02 835.508 191.671 637.155 200.389C831.702 192.96 1019.94 213.957 1094.32 332.314C1101.63 343.954 1108.05 354.839 1113.84 364.995H1112.67C1106.9 354.89 1100.52 344.067 1093.26 332.507C1017.6 212.117 823.574 192.768 625.222 201.487C819.765 194.057 1008 215.055 1082.39 333.411C1089.44 344.633 1095.65 355.154 1101.28 364.995H1100.11C1094.51 355.205 1088.33 344.747 1081.33 333.605C1005.66 213.214 811.642 193.866 613.289 202.584C807.834 195.156 996.068 216.152 1070.45 334.509C1077.24 345.314 1083.26 355.471 1088.72 364.995H1087.55C1082.12 355.523 1076.13 345.429 1069.39 334.704C993.732 214.314 799.709 194.964 601.356 203.683C795.899 196.254 984.137 217.251 1058.52 335.608C1065.05 345.999 1070.86 355.789 1076.16 364.995H1074.98C1069.72 355.841 1063.94 346.114 1057.46 335.801C981.798 215.411 787.776 196.062 589.423 204.781C783.968 197.351 972.202 218.348 1046.59 336.705C1052.86 346.684 1058.47 356.11 1063.59 364.995H1062.42C1057.32 356.162 1051.75 346.801 1045.53 336.899C969.865 216.508 775.843 197.16 577.49 205.878C772.035 198.449 960.27 219.446 1034.65 337.803C1040.67 347.373 1046.07 356.431 1051.02 364.994H1049.85C1044.93 356.485 1039.56 347.489 1033.59 337.997C957.932 217.606 763.91 198.257 565.557 206.976C760.102 199.546 948.337 220.544 1022.72 338.901C1028.48 348.061 1033.68 356.756 1038.45 364.994H1037.28C1032.53 356.81 1027.37 348.18 1021.66 339.094C945.999 218.703 751.977 199.355 553.624 208.074C748.168 200.645 936.404 221.641 1010.79 339.998C1016.29 348.753 1021.28 357.082 1025.88 364.994H1024.71C1020.14 357.138 1015.18 348.873 1009.73 340.192C934.066 219.801 740.043 200.453 541.69 209.171C736.234 201.741 924.469 222.739 998.854 341.096C1004.1 349.446 1008.89 357.41 1013.31 364.994H1012.14C1007.74 357.465 1002.99 349.566 997.794 341.29C922.133 220.899 728.11 201.55 529.757 210.269C724.302 202.838 912.538 223.836 986.921 342.194C991.916 350.142 996.492 357.74 1000.74 364.994H999.562C995.349 357.796 990.81 350.263 985.861 342.387C910.2 221.997 716.179 202.649 517.824 211.367C712.369 203.937 900.605 224.934 974.988 343.291C979.732 350.84 984.098 358.071 988.16 364.993H986.985C982.953 358.128 978.626 350.961 973.928 343.485C898.267 223.094 704.244 203.746 505.891 212.464C700.436 205.035 888.672 226.032 963.054 344.389C967.548 351.539 971.702 358.406 975.581 364.993H974.408C970.561 358.462 966.444 351.661 961.996 344.583C886.333 224.192 692.311 204.843 493.96 213.562C688.504 206.132 876.74 227.129 951.123 345.487C955.367 352.241 959.309 358.741 963.002 364.992H961.827C958.166 358.798 954.263 352.362 950.063 345.68C874.402 225.289 680.379 205.939 482.027 214.66C676.57 207.23 864.807 228.228 939.19 346.584C943.186 352.943 946.916 359.078 950.419 364.992H949.244C945.772 359.137 942.082 353.066 938.13 346.778C862.467 226.387 668.445 207.038 470.093 215.757C664.638 208.328 852.874 229.325 927.257 347.682C931.006 353.648 934.52 359.417 937.835 364.991H936.658C933.378 359.476 929.902 353.771 926.197 347.876C850.536 227.486 656.515 208.136 458.16 216.855C652.705 209.424 840.941 230.422 915.324 348.78C918.828 354.356 922.124 359.758 925.246 364.991H924.071C920.983 359.817 917.724 354.479 914.264 348.973C836.561 225.335 634.029 208.269 430.169 218.725C424.302 219.286 418.531 219.824 412.852 220.334C408.831 220.712 404.851 221.079 400.919 221.432C396.898 221.811 392.918 222.177 388.986 222.53C384.963 222.908 380.985 223.275 377.053 223.628C373.03 224.007 369.052 224.374 365.12 224.726C361.098 225.105 357.119 225.471 353.187 225.824C349.165 226.202 345.186 226.569 341.254 226.922C337.232 227.3 333.253 227.667 329.321 228.02C325.299 228.399 321.319 228.765 317.387 229.118C313.366 229.496 309.386 229.863 305.454 230.216C301.433 230.595 297.453 230.961 293.521 231.314C289.498 231.693 285.52 232.059 281.588 232.413C277.566 232.791 273.587 233.158 269.655 233.51C265.631 233.889 261.654 234.255 257.722 234.608C253.7 234.986 249.721 235.353 245.789 235.707C241.765 236.085 237.788 236.452 233.856 236.804C229.834 237.183 225.854 237.549 221.922 237.902C217.899 238.28 213.921 238.647 209.989 239.001C205.968 239.379 201.988 239.746 198.056 240.098C194.033 240.477 190.055 240.843 186.123 241.197C182.101 241.575 178.122 241.942 174.19 242.294C170.168 242.673 166.189 243.039 162.257 243.392C158.235 243.771 154.256 244.137 150.324 244.491C146.302 244.869 142.323 245.236 138.391 245.588C134.369 245.967 130.389 246.333 126.458 246.686C122.436 247.065 118.456 247.431 114.524 247.785C110.503 248.163 106.523 248.53 102.591 248.882C98.5695 249.261 94.5901 249.627 90.6581 249.981C77.9383 251.177 65.6627 252.254 53.8923 253.171C35.6451 254.592 17.6352 255.679 0.0118687 256.329V255.721C3.6386 255.587 7.2772 255.437 10.9345 255.267C7.27551 255.398 3.63691 255.509 0.0118687 255.602V254.997C7.55696 254.805 15.1767 254.527 22.8676 254.169C15.1699 254.446 7.54849 254.637 0.0118687 254.737V254.132C11.4228 253.981 23.032 253.618 34.8007 253.071C23.0151 253.495 11.4041 253.72 0.0118687 253.717V253.111C15.2292 253.115 30.8366 252.712 46.7338 251.972C30.8043 252.545 15.1936 252.755 0.0118687 252.528V251.924C18.9628 252.208 38.5851 251.809 58.6669 250.875C38.5309 251.598 18.9051 251.743 0.0118687 251.158V250.554C22.6132 251.257 46.2709 250.91 70.6001 249.777C46.1879 250.654 22.5268 250.683 0.0118687 249.587V248.981C26.1671 250.259 53.8856 250.011 82.5349 248.678C53.7703 249.712 26.045 249.569 0.0118687 247.793V247.184C29.6124 249.211 61.4188 249.118 94.468 247.58C61.2611 248.772 29.4428 248.398 0.0118687 245.752V245.139C32.9305 248.11 68.8655 248.228 106.401 246.482C68.6553 247.838 32.7033 247.169 0.0118687 243.441V242.822C36.1029 246.958 76.2106 247.344 118.334 245.384C75.9376 246.908 35.8028 245.875 0.0118687 240.822V240.197C39.1056 245.744 83.442 246.464 130.267 244.286C83.091 245.981 38.7174 244.512 0.0118687 237.859V237.225C41.9134 244.468 90.5428 245.592 142.2 243.188C90.0986 245.06 41.4133 243.075 0.0118687 234.507V233.857C44.494 243.12 97.4911 244.726 154.134 242.09C96.9384 244.145 43.8582 241.551 0.0118687 230.705V230.037C46.8084 241.695 104.268 243.868 166.067 240.992C103.576 243.237 45.9997 239.934 0.0118687 226.379V225.689C48.8041 240.183 110.842 243.017 178.002 239.894C109.98 242.338 47.78 238.207 0.0118687 221.437V220.715C50.4199 238.57 117.169 242.182 189.935 238.796C116.098 241.45 49.1177 236.357 0.0118687 215.76V214.987C51.5661 236.839 123.202 241.359 201.868 237.699C121.859 240.574 49.8994 234.352 0.0118687 209.163V208.335C51.99 234.902 128.463 240.524 213.128 236.633L213.245 236.621C130.545 239.55 56.4848 232.73 6.57865 205.238C4.33885 204.004 2.15332 202.724 0.0135642 201.405V200.486C2.40595 201.981 4.85599 203.426 7.37385 204.814C58.8484 233.17 136.271 239.411 222.377 235.653L222.83 235.605C141.076 238.322 67.9449 231.371 18.5118 204.139C11.9094 200.502 5.73088 196.502 0.0135642 192.116V191.055C5.953 195.692 12.3926 199.905 19.307 203.714C70.2796 231.794 146.697 238.189 231.794 234.662L232.659 234.572C151.755 237.101 79.4541 230.038 30.4449 203.041C18.9526 196.71 8.74723 189.282 0.0118687 180.628V179.351C8.91 188.377 19.385 196.088 31.2384 202.618C81.7668 230.452 157.297 236.978 241.501 233.654L242.649 233.535C162.53 235.89 90.9939 228.725 42.378 201.944C25.1616 192.459 10.8276 180.512 0.0118687 165.663V163.992C10.8853 179.435 25.5007 191.785 43.1732 201.52C93.2896 229.128 168.005 235.775 251.381 232.638L252.871 232.486C173.447 234.689 102.581 227.437 54.3111 200.846C29.6887 187.296 10.9701 168.715 0 143.803V141.126C10.7479 167.2 29.7904 186.49 55.0945 200.428C104.862 227.843 178.885 234.587 261.559 231.608L263.304 231.432C184.484 233.504 114.201 226.177 66.2324 199.754C7.67056 167.494 -17.5436 106.781 15.6955 0H16.8264C-16.3924 106.621 8.68789 167.192 67.0276 199.33C116.491 226.578 189.918 233.406 271.981 230.563L273.963 230.369C195.66 232.328 125.876 224.939 78.1655 198.656C19.8038 166.506 -5.43586 106.099 27.2878 0H28.4187C-4.2846 105.939 20.8211 166.205 78.9607 198.233C128.195 225.355 201.169 232.247 282.773 229.507L284.918 229.297C207.012 231.17 137.611 223.732 90.0986 197.559C31.9387 165.519 6.66851 105.42 38.8818 0H40.0127C7.81808 105.258 32.956 165.217 90.8938 197.134C139.979 224.174 212.66 231.106 293.964 228.433L296.292 228.21C218.613 230.034 149.429 222.57 102.032 196.46C44.0718 164.532 18.7695 104.743 50.4758 0H51.6068C19.9207 104.582 45.0908 164.23 102.829 196.036C151.851 223.041 224.41 229.99 305.588 227.344L308.05 227.116C230.443 228.925 161.329 221.453 113.967 195.362C56.2118 163.546 30.8874 104.06 62.0851 0H63.2143C32.037 103.897 57.2274 163.244 114.762 194.938C163.785 221.944 236.343 228.891 317.52 226.246L319.982 226.018C242.374 227.826 173.259 220.353 125.898 194.264C68.3484 162.561 43.007 103.379 73.6927 0H74.8219Z" fill="#E0E0E0"/>
</g>
<defs>
<clipPath id="clip0_1716_327">
<rect width="1277" height="365" fill="white"/>
</clipPath>
</defs>
</svg>
