<svg width="70" height="70" viewBox="0 0 70 70" fill="none" xmlns="http://www.w3.org/2000/svg">
<path d="M45.2084 32.0834C46.4237 32.0834 47.4571 31.6575 48.3088 30.8059C49.1605 29.9542 49.5853 28.9217 49.5834 27.7084C49.5834 26.4931 49.1575 25.4596 48.3059 24.608C47.4542 23.7563 46.4217 23.3314 45.2084 23.3334C43.9931 23.3334 42.9596 23.7592 42.108 24.6109C41.2563 25.4625 40.8314 26.495 40.8334 27.7084C40.8334 28.9237 41.2592 29.9571 42.1109 30.8088C42.9625 31.6605 43.995 32.0853 45.2084 32.0834ZM24.7917 32.0834C26.007 32.0834 27.0405 31.6575 27.8921 30.8059C28.7438 29.9542 29.1687 28.9217 29.1667 27.7084C29.1667 26.4931 28.7409 25.4596 27.8892 24.608C27.0375 23.7563 26.005 23.3314 24.7917 23.3334C23.5764 23.3334 22.543 23.7592 21.6913 24.6109C20.8396 25.4625 20.4148 26.495 20.4167 27.7084C20.4167 28.9237 20.8425 29.9571 21.6942 30.8088C22.5459 31.6605 23.5784 32.0853 24.7917 32.0834ZM35 39.375C31.6945 39.375 28.6923 40.3113 25.9934 42.1838C23.2945 44.0563 21.3384 46.5228 20.125 49.5834H49.875C48.6598 46.5209 46.7027 44.0534 44.0038 42.1809C41.3049 40.3084 38.3037 39.3731 35 39.375ZM35 64.1667C30.9653 64.1667 27.1737 63.4006 23.625 61.8684C20.0764 60.3362 16.9896 58.2585 14.3646 55.6355C11.7396 53.0105 9.66199 49.9237 8.13171 46.375C6.60143 42.8264 5.83532 39.0348 5.83337 35C5.83337 30.9653 6.59949 27.1737 8.13171 23.625C9.66393 20.0764 11.7416 16.9896 14.3646 14.3646C16.9896 11.7396 20.0764 9.66199 23.625 8.13171C27.1737 6.60143 30.9653 5.83532 35 5.83337C39.0348 5.83337 42.8264 6.59949 46.375 8.13171C49.9237 9.66393 53.0105 11.7416 55.6355 14.3646C58.2605 16.9896 60.3391 20.0764 61.8713 23.625C63.4035 27.1737 64.1687 30.9653 64.1667 35C64.1667 39.0348 63.4006 42.8264 61.8684 46.375C60.3362 49.9237 58.2585 53.0105 55.6355 55.6355C53.0105 58.2605 49.9237 60.3391 46.375 61.8713C42.8264 63.4035 39.0348 64.1687 35 64.1667ZM35 58.3334C41.5139 58.3334 47.0313 56.073 51.5521 51.5521C56.073 47.0313 58.3334 41.5139 58.3334 35C58.3334 28.4862 56.073 22.9688 51.5521 18.448C47.0313 13.9271 41.5139 11.6667 35 11.6667C28.4862 11.6667 22.9688 13.9271 18.448 18.448C13.9271 22.9688 11.6667 28.4862 11.6667 35C11.6667 41.5139 13.9271 47.0313 18.448 51.5521C22.9688 56.073 28.4862 58.3334 35 58.3334Z" fill="white"/>
</svg>
