<svg width="70" height="70" viewBox="0 0 70 70" fill="none" xmlns="http://www.w3.org/2000/svg">
<path d="M37.8608 9.04532C40.3535 9.32899 42.7613 10.0072 44.4275 11.9277C46.0773 13.8221 46.5707 16.4208 46.5707 19.4271C46.5707 20.9498 46.2864 23.0758 46.0577 24.7648L46.0087 25.1332H50.6544C52.6244 25.1332 54.4899 25.4104 56.1038 26.219C57.7635 27.0472 59.0801 28.433 59.8184 30.1317C61.2984 33.3858 61.2494 38.1105 60.4326 44.2046L60.3019 45.2023C59.9589 47.7782 59.6649 50.0052 59.2794 51.8311C58.8514 53.8853 58.2502 55.7732 57.097 57.2829C54.6402 60.5011 50.5107 61 44.9372 61C38.8997 61 34.3716 59.9142 30.6015 58.8708C30.0624 58.7241 29.5463 58.5774 29.0497 58.4372C26.9 57.8307 25.1293 57.3285 23.4141 57.084C23.0368 58.2238 22.3089 59.2158 21.334 59.9188C20.3592 60.6219 19.187 61.0002 17.9843 61H14.7173C13.201 61 11.7467 60.3988 10.6746 59.3287C9.60235 58.2586 9 56.8073 9 55.2939V30.8393C9 27.6895 11.5613 25.1332 14.7173 25.1332H17.9843C18.9861 25.1331 19.9703 25.3957 20.8384 25.8947C21.7065 26.3937 22.4279 27.1116 22.9305 27.9765C23.7734 27.6341 24.8581 27.1026 25.9297 26.3201C28.1218 24.7224 30.2356 22.1302 30.2356 17.7968V16.1665C30.2356 12.2472 33.483 8.54644 37.8608 9.04532ZM23.7016 52.1963C26.0048 52.4833 28.2427 53.1223 30.4708 53.7549L31.9116 54.1625C35.4922 55.157 39.5368 56.1123 44.9372 56.1123C50.7982 56.1123 52.386 55.3852 53.1962 54.3223C53.6764 53.693 54.0979 52.6756 54.4834 50.8334C54.8264 49.1966 55.0976 47.1685 55.4471 44.5404L55.5778 43.5622C56.3946 37.4257 56.1953 33.9988 55.3557 32.1598C55.0818 31.4797 54.5682 30.9231 53.9116 30.5947C53.2321 30.2556 52.2128 30.0274 50.6544 30.0274H44.9372C42.696 30.0274 40.7064 28.146 40.9971 25.6712C41.0723 25.0452 41.1605 24.3996 41.2454 23.7605C41.4578 22.1693 41.6701 20.5977 41.6701 19.4304C41.6701 16.7925 41.1997 15.6807 40.7292 15.1394C40.2817 14.6242 39.4159 14.1482 37.3054 13.9069C36.3024 13.7895 35.1361 14.6764 35.1361 16.1665V17.7968C35.1361 24.0637 31.941 27.996 28.821 30.2687C27.2586 31.4031 25.5324 32.2936 23.7016 32.9098V52.1963ZM17.9843 30.0241H14.7173C14.5007 30.0241 14.2929 30.11 14.1397 30.2629C13.9866 30.4158 13.9005 30.6231 13.9005 30.8393V55.2939C13.9005 55.7439 14.2664 56.1091 14.7173 56.1091H17.9843C18.2009 56.1091 18.4087 56.0232 18.5618 55.8703C18.715 55.7174 18.801 55.5101 18.801 55.2939V30.8393C18.801 30.6231 18.715 30.4158 18.5618 30.2629C18.4087 30.11 18.2009 30.0241 17.9843 30.0241Z" fill="white"/>
</svg>
